<svg width="25" height="24" viewBox="0 0 25 24" fill="none" xmlns="http://www.w3.org/2000/svg">
<g clip-path="url(#clip0_806_9259)">
<path d="M13.4619 2.35228C14.0137 2.36013 14.5654 2.35228 15.1172 2.35228C15.392 2.35228 15.6689 2.35228 15.9438 2.35228C15.6669 2.35228 15.392 2.35228 15.1172 2.35228C14.5654 2.35228 14.0137 2.35817 13.4619 2.35228Z" fill="white"/>
<path d="M14.785 9.72919C14.6554 9.59567 14.6318 9.36987 14.6416 9.13817C14.6279 8.82205 14.6927 8.5393 14.997 8.47647C14.6927 8.53734 14.6279 8.82009 14.6416 9.13817C14.6318 9.36987 14.6554 9.59567 14.785 9.72919Z" fill="white"/>
<path d="M17.756 4.64174C17.5793 4.59069 17.2965 4.39237 17.3083 4.29027C17.3496 3.90542 17.0197 3.4224 17.6127 3.15144C18.292 2.8412 18.6514 2.10292 18.5277 1.42551C18.3863 0.649923 17.7815 0.0510516 16.9902 0.0255259C15.7552 -0.0137443 14.5162 -0.00785377 13.2812 0.0235624C12.5311 0.0431975 11.9224 0.594944 11.7477 1.31163C11.5886 1.96155 11.8419 2.73517 12.4604 3.03363C12.967 3.27906 12.9906 3.62072 12.9866 4.07429C12.9827 4.39237 12.9238 4.54946 12.5723 4.64174C10.5813 5.16403 8.9202 6.23415 7.59483 7.80692C7.39063 8.04843 7.18642 8.12108 6.88993 8.11716C5.89639 8.10341 4.90482 8.11127 3.91128 8.11323C3.56767 8.11323 3.32419 8.2762 3.33597 8.62963C3.34776 8.95165 3.58534 9.09499 3.90932 9.09302C4.52783 9.08713 5.14633 9.09302 5.76484 9.09302C6.04366 9.09302 6.32248 9.09302 6.62682 9.09302C6.37745 9.63299 6.12809 10.0767 5.96904 10.5499C5.85123 10.8995 5.6647 10.9721 5.33287 10.9682C3.819 10.9525 2.30513 10.9623 0.791264 10.9603C0.410343 10.9584 0.00585938 10.9721 0.00585938 11.4669C0.00585938 11.944 0.400525 11.9401 0.755921 11.9381C1.4726 11.9342 2.18732 11.9381 2.904 11.9381C3.74635 11.9381 4.59066 11.9381 5.48406 11.9381C5.39766 12.5959 5.31912 13.1968 5.23469 13.8329C4.51605 13.8329 3.83274 13.829 3.1514 13.8349C2.85099 13.8388 2.61144 13.9959 2.65071 14.2983C2.67231 14.4711 2.87455 14.6556 3.04145 14.7617C3.16122 14.8363 3.35757 14.7951 3.52054 14.7951C4.09978 14.797 4.67902 14.7951 5.26022 14.7951C5.36428 15.4548 5.45853 16.0439 5.56063 16.6859C5.35054 16.6859 5.17579 16.6859 5.00103 16.6859C4.15476 16.6859 3.30849 16.6859 2.46221 16.6879C2.15198 16.6879 1.92028 16.8607 1.96937 17.1513C2.00079 17.3358 2.23248 17.5086 2.4092 17.6382C2.49559 17.7011 2.66249 17.6598 2.79208 17.6598C3.70315 17.6598 4.61422 17.6696 5.52529 17.6539C5.80804 17.648 5.94352 17.7384 6.06133 18.0074C8.01895 22.496 12.7235 24.8718 17.4733 23.6996C18.4962 23.4463 19.4466 22.8965 20.4205 22.4626C20.7131 22.333 20.8112 22.0542 20.6443 21.7675C20.4735 21.4749 20.2025 21.473 19.9237 21.63C19.8098 21.6948 19.7018 21.7655 19.5899 21.8323C18.2547 22.6079 16.8076 23.0065 15.2702 23.0261C9.84109 23.1007 5.66863 18.4295 6.3264 13.0358C6.96847 7.76569 12.1443 4.22155 17.2828 5.53514C23.0987 7.02152 25.7985 13.5738 22.7276 18.7555C22.543 19.0657 22.3565 19.3936 22.7531 19.643C23.1557 19.8963 23.3677 19.5821 23.5562 19.2738C24.4202 17.8581 24.9012 16.3168 24.9817 14.6674C25.2095 10.0061 22.2446 5.91999 17.754 4.63781L17.756 4.64174ZM16.2618 4.3158H13.9762V3.3576H16.2618V4.3158ZM15.9456 2.35621C15.6688 2.35621 15.3939 2.35621 15.119 2.35621C14.5673 2.35621 14.0155 2.3621 13.4638 2.35621C12.9749 2.35032 12.6882 2.08918 12.6921 1.67684C12.696 1.27628 12.9965 1.00139 13.4775 0.997464C14.581 0.98961 15.6845 0.987646 16.788 0.997464C17.2553 1.00139 17.5695 1.29788 17.5655 1.68862C17.5616 2.08329 17.2533 2.35032 16.7742 2.35621C16.4994 2.36014 16.2225 2.36014 15.9476 2.36014L15.9456 2.35621Z" fill="white"/>
<path d="M15.1486 6.56991C10.9919 6.5542 7.5734 9.95893 7.55573 14.1334C7.53806 18.3039 10.9232 21.6988 15.1133 21.7105C19.2995 21.7223 22.6885 18.3549 22.7062 14.1687C22.7239 10.01 19.3172 6.58562 15.1486 6.56991ZM15.1427 20.7386C11.5142 20.7484 8.56301 17.8248 8.52767 14.1864C8.49233 10.5735 11.4906 7.55559 15.1192 7.54577C18.7458 7.53792 21.748 10.5401 21.7342 14.1628C21.7205 17.7933 18.7792 20.7288 15.1427 20.7386Z" fill="white"/>
<path d="M17.9823 10.603C17.3422 11.249 16.7001 11.893 16.0502 12.5292C15.9559 12.6214 15.8185 12.7334 15.7007 12.7314C14.8387 12.7255 13.9826 12.6843 13.4799 11.8086C13.4642 11.7811 13.4348 11.7614 13.4112 11.7418C13.1874 11.5474 12.938 11.4905 12.7142 11.7064C12.4727 11.9381 12.51 12.2013 12.7338 12.4369C12.9694 12.6823 13.2031 12.9336 13.4583 13.1594C13.6724 13.3479 13.7352 13.5207 13.6704 13.8251C13.4583 14.8304 14.1554 15.6629 15.1489 15.6531C16.1366 15.6433 16.8061 14.797 16.5862 13.7878C16.5293 13.5266 16.5803 13.3774 16.761 13.2026C17.4129 12.5684 18.049 11.9185 18.695 11.2784C18.9581 11.0173 19.2586 10.7306 18.8874 10.3811C18.5262 10.0414 18.2434 10.3438 17.9823 10.6049V10.603ZM15.143 14.9541C14.7287 14.9541 14.393 14.6183 14.393 14.2021C14.393 13.7858 14.7287 13.45 15.143 13.45C15.5573 13.45 15.8951 13.7858 15.8951 14.2021C15.8951 14.6183 15.5593 14.9541 15.143 14.9541Z" fill="white"/>
<path d="M15.1345 18.4531C14.6907 18.4433 14.6338 18.7613 14.6338 19.1187C14.6338 19.482 14.6534 19.8393 15.1345 19.8315C15.5782 19.8236 15.6214 19.4898 15.6155 19.1423C15.6214 18.7947 15.5743 18.4629 15.1325 18.4531H15.1345Z" fill="white"/>
<path d="M14.6416 9.13819C14.6318 9.36988 14.6554 9.59568 14.785 9.7292C14.8635 9.80971 14.9793 9.85683 15.1502 9.85487C15.5782 9.84898 15.6234 9.50733 15.6253 9.15389C15.6253 8.79654 15.5763 8.46863 15.1423 8.46274C15.0893 8.46274 15.0402 8.46667 14.997 8.47452C14.6927 8.53539 14.6279 8.81813 14.6416 9.13622V9.13819Z" fill="white"/>
<path d="M10.1199 13.668C9.78409 13.6484 9.45226 13.6896 9.44637 14.1373C9.44048 14.5732 9.75857 14.6439 10.114 14.6458C10.4811 14.6458 10.8306 14.5948 10.8287 14.1314C10.8248 13.6857 10.4811 13.6523 10.1199 13.668Z" fill="white"/>
<path d="M19.4326 14.1667C19.4385 14.5987 19.7723 14.6596 20.1277 14.6517C20.4713 14.6576 20.8051 14.6125 20.8149 14.1707C20.8247 13.7269 20.5086 13.668 20.1513 13.67C19.788 13.67 19.4267 13.6935 19.4346 14.1687L19.4326 14.1667Z" fill="white"/>
</g>
<defs>
<clipPath id="clip0_806_9259">
<rect width="24.9876" height="24" fill="white" transform="translate(0.00585938)"/>
</clipPath>
</defs>
</svg>
