<?xml version="1.0" encoding="UTF-8"?>
<svg width="24px" height="24px" viewBox="0 0 24 24" version="1.1" xmlns="http://www.w3.org/2000/svg"
>
    <!-- Generator: sketchtool 63.1 (101010) - https://sketch.com -->
	<title>F4E70241-93F1-4DDA-909D-C9B729462673</title>
    <desc>Created with sketchtool.</desc>
    <g id="TIEN21" stroke="none" stroke-width="1" fill="none" fill-rule="evenodd">
        <g id="Android-Cabecera-TIEN21" transform="translate(-307.000000, -92.000000)" fill="#0260A7" stroke="#0260A7" stroke-width="0.5">
            <g id="Group-3" transform="translate(308.000000, 93.000000)">
                <path d="M9.20131667,1.63551667 C13.3730667,1.63551667 16.7674833,5.02993333 16.7674833,9.20076667 C16.7674833,13.3734333 13.3730667,16.7669333 9.20131667,16.7669333 C5.02956667,16.7669333 1.63515,13.3734333 1.63515,9.20076667 C1.63515,5.02993333 5.02956667,1.63551667 9.20131667,1.63551667 M9.20131667,18.4031833 C11.4444,18.4031833 13.4995667,17.5937667 15.09915,16.2554333 L20.6037333,21.7609333 C20.7632333,21.9204333 20.97315,22.0001833 21.18215,22.0001833 C21.3920667,22.0001833 21.60015,21.9204333 21.7605667,21.7609333 C22.0795667,21.4410167 22.0795667,20.9240167 21.7605667,20.6041 L16.2550667,15.0995167 C17.5934,13.4999333 18.4028167,11.4447667 18.4028167,9.20076667 C18.4028167,4.12793333 14.2750667,0.000183333333 9.20131667,0.000183333333 C4.12756667,0.000183333333 -0.000183333333,4.12793333 -0.000183333333,9.20076667 C-0.000183333333,14.2754333 4.12756667,18.4031833 9.20131667,18.4031833"
					  id="Fill-1"></path>
            </g>
        </g>
    </g>
</svg>