<svg width="20" height="23" viewBox="0 0 20 23" fill="none" xmlns="http://www.w3.org/2000/svg">
<path fill-rule="evenodd" clip-rule="evenodd" d="M10 0C9.47421 0 8.95768 0.138185 8.50214 0.400688L1.50386 4.3997L1.5 4.40192C1.13 4.61554 0.810904 4.90513 0.563043 5.25036C0.502704 5.31072 0.449158 5.37985 0.404395 5.45724C0.365837 5.52389 0.335831 5.59315 0.314038 5.66373C0.10833 6.0772 0.000475409 6.53342 0 6.99692V14.999C0.000539601 15.5251 0.139414 16.0418 0.402692 16.4972C0.66597 16.9527 1.04439 17.3309 1.5 17.594L1.50386 17.5962L8.5 21.594L8.50185 21.595C8.81905 21.7779 9.16584 21.9004 9.52474 21.958C9.66611 22.0345 9.82797 22.078 10 22.078C10.172 22.078 10.3339 22.0345 10.4753 21.958C10.8342 21.9004 11.181 21.7779 11.4982 21.595L11.5 21.594L18.4961 17.5962L18.5 17.594C18.9556 17.3309 19.334 16.9527 19.5973 16.4972C19.8606 16.0418 19.9995 15.5251 20 14.999V6.99692C19.9995 6.53343 19.8917 6.07722 19.686 5.66375C19.6642 5.59316 19.6342 5.5239 19.5956 5.45724C19.5508 5.37985 19.4973 5.31071 19.4369 5.25034C19.1891 4.90512 18.87 4.61554 18.5 4.40191L11.5 0.401924L11.4979 0.40072C11.0424 0.138196 10.5258 0 10 0ZM17.5 15.8619L11 19.5762V11.5848L18 7.5355V14.9969C17.9998 15.1723 17.9535 15.3445 17.8658 15.4963C17.7783 15.6476 17.6527 15.7734 17.5016 15.861L17.5 15.8619ZM9 19.5762V11.5848L2 7.5355V14.9974C2.00025 15.1726 2.04654 15.3446 2.13423 15.4963C2.22169 15.6476 2.34726 15.7734 2.49842 15.861L2.5 15.8619L9 19.5762ZM16.961 5.82599L10.5 2.13398C10.348 2.04621 10.1755 2 10 2C9.82446 2 9.65202 2.04621 9.5 2.13397L9.49614 2.1362L7.75855 3.12911L14.4911 7.25479L16.961 5.82599ZM5.7778 4.26096L3.03897 5.82599L10 9.8527L12.522 8.39381L5.7778 4.26096Z" fill="black"/>
</svg>
